<svg width="47" height="47" viewBox="0 0 47 47" fill="none" xmlns="http://www.w3.org/2000/svg">
<path d="M23.5 3.91666C12.6841 3.91666 3.91666 12.6841 3.91666 23.5C3.91666 34.3159 12.6841 43.0833 23.5 43.0833C34.3159 43.0833 43.0833 34.3159 43.0833 23.5C43.0833 12.6841 34.3159 3.91666 23.5 3.91666ZM23.5 39.1667L27.4167 35.25L29.375 33.2917V29.375H25.4583V27.4167L23.5 25.4583H17.625V31.3333L21.5417 35.25V39.0315C13.8258 38.0622 7.83332 31.4743 7.83332 23.5L9.79166 25.4583H13.7083V21.5417H17.625L23.5 15.6667V11.75H19.5833L17.625 9.79166V8.98679C21.3911 7.45103 25.6089 7.45103 29.375 8.98679V11.75L27.4167 13.7083V17.625L29.375 19.5833L35.5046 13.4537C36.9957 15.2376 38.0701 17.3317 38.6497 19.5833H35.25L31.3333 23.5V27.4167L33.2917 29.375H37.2083L37.7684 29.9351C35.3068 35.3695 29.843 39.1667 23.5 39.1667Z" fill="#C3AEF8"/>
</svg>
