<svg width="33" height="33" viewBox="0 0 33 33" fill="none" xmlns="http://www.w3.org/2000/svg">
<path fill-rule="evenodd" clip-rule="evenodd" d="M22.9211 18.0537C24.8049 19.3325 26.1249 21.065 26.1249 23.375V27.5H31.6249V23.375C31.6249 20.3775 26.7161 18.6037 22.9211 18.0537Z" fill="white"/>
<path d="M12.375 16.5C15.4126 16.5 17.875 14.0376 17.875 11C17.875 7.96243 15.4126 5.5 12.375 5.5C9.33743 5.5 6.875 7.96243 6.875 11C6.875 14.0376 9.33743 16.5 12.375 16.5Z" fill="white"/>
<path fill-rule="evenodd" clip-rule="evenodd" d="M20.625 16.5C23.6637 16.5 26.125 14.0387 26.125 11C26.125 7.96125 23.6637 5.5 20.625 5.5C19.9788 5.5 19.3738 5.6375 18.7962 5.83C19.9795 7.2933 20.625 9.11818 20.625 11C20.625 12.8818 19.9795 14.7067 18.7962 16.17C19.3738 16.3625 19.9788 16.5 20.625 16.5ZM12.375 17.875C8.70375 17.875 1.375 19.7175 1.375 23.375V27.5H23.375V23.375C23.375 19.7175 16.0463 17.875 12.375 17.875Z" fill="white"/>
</svg>
