<svg width="44" height="44" viewBox="0 0 44 44" fill="none" xmlns="http://www.w3.org/2000/svg">
<g clip-path="url(#clip0_249_221)">
<path d="M13.3884 9.45999C13.1688 9.46157 12.9517 9.50698 12.7499 9.59355C12.5481 9.68011 12.3656 9.8061 12.2131 9.96412C12.0606 10.1221 11.9411 10.309 11.8618 10.5138C11.7824 10.7186 11.7448 10.9371 11.751 11.1566C11.7572 11.3761 11.8072 11.5922 11.898 11.7922C11.9888 11.9921 12.1186 12.172 12.2798 12.3211C12.441 12.4702 12.6303 12.5857 12.8367 12.6607C13.0431 12.7357 13.2624 12.7688 13.4818 12.7579L29.3399 12.3161L9.54601 32.11C9.23657 32.4195 9.06273 32.8392 9.06274 33.2768C9.06273 33.7144 9.23658 34.1341 9.54601 34.4435C9.85545 34.7529 10.2751 34.9268 10.7127 34.9268C11.1503 34.9268 11.57 34.7529 11.8795 34.4435L31.6765 14.6465L31.2347 30.5108C31.2238 30.7302 31.2569 30.9495 31.3319 31.1559C31.4069 31.3623 31.5224 31.5516 31.6715 31.7128C31.8207 31.874 32.0005 32.0038 32.2004 32.0946C32.4004 32.1854 32.6165 32.2354 32.836 32.2416C33.0555 32.2478 33.2741 32.2102 33.4788 32.1308C33.6836 32.0515 33.8705 31.932 34.0285 31.7795C34.1865 31.627 34.3125 31.4445 34.3991 31.2427C34.4856 31.0409 34.531 30.8238 34.5326 30.6042L35.074 11.1774C35.0883 10.695 34.9428 10.2214 34.6602 9.83023C34.5284 9.62552 34.3531 9.45237 34.1468 9.3231C33.7588 9.04701 33.2912 8.905 32.8152 8.91863L13.3884 9.45999Z" fill="#EDEFF2"/>
</g>
<defs>
<clipPath id="clip0_249_221">
<rect width="44" height="44" fill="white"/>
</clipPath>
</defs>
</svg>
