<svg width="47" height="47" viewBox="0 0 47 47" fill="none" xmlns="http://www.w3.org/2000/svg">
<path d="M9.79168 15.6667L19.5833 31.3333M36.6639 40.1458C39.5859 35.0849 41.1242 29.3439 41.1242 23.5C41.1242 17.6561 39.5859 11.9151 36.6639 6.85416M28.1843 35.25C30.2469 31.6775 31.3327 27.6251 31.3327 23.5C31.3327 19.3749 30.2469 15.3224 28.1843 11.75M19.4423 31.3333C20.8174 28.9517 21.5413 26.2501 21.5413 23.5C21.5413 20.7499 20.8174 18.0483 19.4423 15.6667M9.93268 31.3333C8.55764 28.9517 7.83374 26.2501 7.83374 23.5C7.83374 20.7499 8.55764 18.0483 9.93268 15.6667" stroke="#C3AEF8" stroke-width="4" stroke-linecap="round"/>
</svg>
