<svg width="47" height="47" viewBox="0 0 47 47" fill="none" xmlns="http://www.w3.org/2000/svg">
<path fill-rule="evenodd" clip-rule="evenodd" d="M32.6454 25.7129C35.3283 27.5342 37.2083 30.0017 37.2083 33.2917V39.1667H45.0417V33.2917C45.0417 29.0225 38.0504 26.4962 32.6454 25.7129Z" fill="#C3AEF8"/>
<path d="M17.625 23.5C21.9512 23.5 25.4583 19.9929 25.4583 15.6667C25.4583 11.3404 21.9512 7.83334 17.625 7.83334C13.2988 7.83334 9.79167 11.3404 9.79167 15.6667C9.79167 19.9929 13.2988 23.5 17.625 23.5Z" fill="#C3AEF8"/>
<path fill-rule="evenodd" clip-rule="evenodd" d="M29.375 23.5C33.7029 23.5 37.2083 19.9946 37.2083 15.6667C37.2083 11.3388 33.7029 7.83334 29.375 7.83334C28.4546 7.83334 27.5929 8.02917 26.7704 8.30334C28.4556 10.3874 29.3749 12.9865 29.3749 15.6667C29.3749 18.3468 28.4556 20.9459 26.7704 23.03C27.5929 23.3042 28.4546 23.5 29.375 23.5ZM17.625 25.4583C12.3962 25.4583 1.95833 28.0825 1.95833 33.2917V39.1667H33.2917V33.2917C33.2917 28.0825 22.8537 25.4583 17.625 25.4583Z" fill="#C3AEF8"/>
</svg>
